# xmcd
#
# Track frame offsets:
#	150
#	21116
#	39445
#	55452
#	83518
#	106488
#	128569
#	148767
#	168434
#	185675
#	205005
#	221802
#
# Disc length: 3233 seconds
#
# Revision: 1
# Processed by: cddbd v1.5.2PL0 Copyright (c) Steve Scherf et al.
# Submitted via: audiograbber 1.83.01
#
DISCID=a80c9f0c
DTITLE=Deana Carter - The Chain
DYEAR=2007
DGENRE=Country
TTITLE0=Crying
TTITLE1=Help Me Make It Through the Ni
TTITLE2=Love Is Like a Butterfly
TTITLE3=The Boxer
TTITLE4=Lay Lady Lay
TTITLE5=The Weight
TTITLE6=I'm Not Lisa
TTITLE7=Swinging
TTITLE8=On the Road Again
TTITLE9=Good Hearted Woman
TTITLE10=He Thinks I Still Care
TTITLE11=Old Man
EXTD=
EXTT0=
EXTT1=
EXTT2=
EXTT3=
EXTT4=
EXTT5=
EXTT6=
EXTT7=
EXTT8=
EXTT9=
EXTT10=
EXTT11=
PLAYORDER=
